<svg xmlns="http://www.w3.org/2000/svg" version="1.1" xmlns:xlink="http://www.w3.org/1999/xlink" xmlns:svgjs="http://svgjs.dev/svgjs" width="1000" height="1000" viewBox="0 0 1000 1000"><rect width="1000" height="1000" fill="#ffffff"></rect><g transform="matrix(0.7,0,0,0.7,149.57575757575756,381.73113936239747)"><svg viewBox="0 0 396 134" data-background-color="#ffffff" preserveAspectRatio="xMidYMid meet" height="338" width="1000" xmlns="http://www.w3.org/2000/svg" xmlns:xlink="http://www.w3.org/1999/xlink"><g id="tight-bounds" transform="matrix(1,0,0,1,0.2400000000000091,-0.01763598715663761)"><svg viewBox="0 0 395.52 134.03527197431328" height="134.03527197431328" width="395.52"><g><svg viewBox="0 0 632.9266733149599 214.48851839999998" height="134.03527197431328" width="395.52"><g transform="matrix(1,0,0,1,237.4066733149599,58.704477699635824)"><svg viewBox="0 0 395.52 97.07956300072833" height="97.07956300072833" width="395.52"><g id="textblocktransform"><svg viewBox="0 0 395.52 97.07956300072833" height="97.07956300072833" width="395.52" id="textblock"><g><svg viewBox="0 0 395.52 97.07956300072833" height="97.07956300072833" width="395.52"><g transform="matrix(1,0,0,1,0,0)"><svg width="395.52" viewBox="3.2 -33.7 137.29000000000002 33.7" height="97.07956300072833" data-palette-color="#6ca6c1"><path d="M8.3 0L3.2 0 5.8-33.7 11.9-33.7 16.4-21.4Q17.6-18.25 18.8-14.73 20-11.2 20.6-9.25L20.6-9.25 21.25-7.3Q23.55-14.1 26.3-21.4L26.3-21.4 31-33.7 37.1-33.7 40.2 0 35.1 0 33.9-13.2 32.85-26.7Q30.6-20.35 27.95-13.2L27.95-13.2 23.25-0.65 19.2-0.65 14.65-13.2 10.1-26.5Q10.1-24.3 9.3-13.2L9.3-13.2 8.3 0ZM52.55 0L47.45 0 47.45-33.7 52.55-33.7 52.55 0ZM64.9 0L59.8 0 62.4-33.7 68.5-33.7 73-21.4Q74.2-18.25 75.4-14.73 76.6-11.2 77.2-9.25L77.2-9.25 77.85-7.3Q80.15-14.1 82.9-21.4L82.9-21.4 87.6-33.7 93.7-33.7 96.8 0 91.7 0 90.5-13.2 89.45-26.7Q87.2-20.35 84.55-13.2L84.55-13.2 79.85-0.65 75.8-0.65 71.25-13.2 66.7-26.5Q66.7-24.3 65.9-13.2L65.9-13.2 64.9 0ZM109.14 0L104.04 0 104.04-33.7 109.14-33.7 109.14 0ZM126.39-29.4L121.99-29.4 121.99-17.1 126.64-17.1Q129.84-17.1 131.49-18.78 133.14-20.45 133.14-23.25L133.14-23.25Q133.14-29.4 126.39-29.4L126.39-29.4ZM140.49 0L134.34 0 126.44-12.8 121.99-12.8 121.99 0 116.84 0 116.84-33.7 126.24-33.7Q132.04-33.7 135.19-30.88 138.34-28.05 138.34-23.2L138.34-23.2Q138.29-19.65 136.54-17.18 134.79-14.7 131.69-13.6L131.69-13.6 140.49 0Z" opacity="1" transform="matrix(1,0,0,1,0,0)" fill="#6ca6c1" class="undefined-text-0" data-fill-palette-color="primary" id="text-0"></path></svg></g></svg></g></svg></g></svg></g><g><svg viewBox="0 0 214.48851839999998 214.48851839999998" height="214.48851839999998" width="214.48851839999998"><g><svg></svg></g><g id="icon-0"><svg viewBox="0 0 214.48851839999998 214.48851839999998" height="214.48851839999998" width="214.48851839999998"><g><rect width="195.02567136" height="195.02567136" x="9.731423519999993" y="9.731423519999993" fill="#6ca6c1" data-fill-palette-color="accent"></rect><rect width="195.02567136" height="195.02567136" x="19.462847039999993" y="-5.329070518200751e-15" fill="#6ca6c1" opacity="0.5" data-fill-palette-color="accent"></rect></g><g transform="matrix(1,0,0,1,27.80406719999999,78.1807743219512)"><svg viewBox="0 0 158.880384 58.12696975609756" height="58.12696975609756" width="158.880384"><g><svg xmlns="http://www.w3.org/2000/svg" xmlns:xlink="http://www.w3.org/1999/xlink" version="1.1" x="0" y="0" viewBox="29.3 42.5 41 15" enable-background="new 0 0 100 100" xml:space="preserve" height="58.12696975609756" width="158.880384" class="icon-g$-0" data-fill-palette-color="background" id="g$-0"><g fill="#ffffff" data-fill-palette-color="background"><polygon points="70.3,57.5 63.3,57.5 63.3,49.5 29.3,49.5 29.3,42.5 70.3,42.5  " fill="#ffffff" data-fill-palette-color="background"></polygon></g></svg></g></svg></g></svg></g></svg></g></svg></g><defs></defs></svg><rect width="395.52" height="134.03527197431328" fill="none" stroke="none" visibility="hidden"></rect></g></svg></g></svg>